<?xml version="1.0" encoding="utf-8"?>
<!-- Generator: Adobe Illustrator 15.0.2, SVG Export Plug-In . SVG Version: 6.00 Build 0)  -->
<!DOCTYPE svg PUBLIC "-//W3C//DTD SVG 1.1//EN" "http://www.w3.org/Graphics/SVG/1.1/DTD/svg11.dtd">
<svg version="1.1" id="Layer_1" xmlns="http://www.w3.org/2000/svg" xmlns:xlink="http://www.w3.org/1999/xlink" x="0px" y="0px"
	 width="44.832px" height="41.145px" viewBox="0 0 44.832 41.145" style="enable-background:new 0 0 44.832 41.145;"
	 xml:space="preserve">
<style type="text/css">
<![CDATA[
	.st0{fill:#155147;}
	.st1{enable-background:new    ;}
	.st2{fill:#8B7262;}
	.st3{fill:#96A08F;}
	.st4{fill:#CE917E;}
	.st5{fill:#CFB7AB;}
	.st6{fill:#799791;}
	.st7{fill:#DDD6D2;}
	.st8{fill:#454E4C;}
]]>
</style>
<g id="start">
	<g>
		<g class="st1">
			<g>
				<polygon class="st7" points="29.043,0.115 29.978,0 44.107,10.268 43.171,10.383 				"/>
			</g>
			<g>
				<polygon class="st7" points="43.359,10.997 44.293,10.881 44.832,41.03 43.896,41.145 				"/>
			</g>
			<g>
				<path class="st7" d="M43.171,10.383l0.936-0.115c0.099,0.072,0.183,0.346,0.187,0.614l-0.935,0.115
					C43.354,10.729,43.27,10.455,43.171,10.383z"/>
			</g>
			<g>
				<path class="st7" d="M43.171,10.383c0.099,0.072,0.183,0.346,0.188,0.614l0.537,30.148l-0.354-0.258l-0.529-29.665L29.061,1.083
					l-0.017-0.967L43.171,10.383z"/>
			</g>
		</g>
	</g>
</g>
<g>
	<g>
		<g class="st1">
			<g>
				<polygon class="st5" points="24.894,0.115 25.829,0 39.96,10.27 39.026,10.385 				"/>
			</g>
			<g>
				<polygon class="st5" points="39.209,10.997 40.145,10.881 40.682,41.03 39.748,41.145 				"/>
			</g>
			<g>
				<path class="st5" d="M39.026,10.385l0.935-0.115c0.096,0.07,0.18,0.344,0.185,0.612l-0.936,0.115
					C39.205,10.729,39.122,10.455,39.026,10.385z"/>
			</g>
			<g>
				<path class="st5" d="M39.026,10.385c0.096,0.07,0.179,0.344,0.184,0.612l0.538,30.148l-0.354-0.258l-0.529-29.665L24.912,1.083
					l-0.018-0.967L39.026,10.385z"/>
			</g>
		</g>
	</g>
</g>
<g>
	<g>
		<g class="st1">
			<g>
				<polygon class="st3" points="20.745,0.115 21.68,0 35.812,10.27 34.876,10.385 				"/>
			</g>
			<g>
				<polygon class="st3" points="35.061,10.997 35.996,10.881 36.534,41.03 35.598,41.145 				"/>
			</g>
			<g>
				<path class="st3" d="M34.876,10.385l0.936-0.115c0.095,0.069,0.179,0.343,0.184,0.611l-0.935,0.115
					C35.056,10.729,34.972,10.455,34.876,10.385z"/>
			</g>
			<g>
				<path class="st3" d="M34.876,10.385c0.096,0.069,0.18,0.343,0.185,0.611l0.537,30.148l-0.354-0.257l-0.529-29.666L20.762,1.083
					l-0.017-0.967L34.876,10.385z"/>
			</g>
		</g>
	</g>
</g>
<g>
	<g>
		<g class="st1">
			<g>
				<polygon class="st8" points="16.596,0.115 17.531,0 31.663,10.27 30.728,10.385 				"/>
			</g>
			<g>
				<polygon class="st8" points="30.912,10.997 31.846,10.881 32.384,41.03 31.449,41.145 				"/>
			</g>
			<g>
				<path class="st8" d="M30.728,10.385l0.935-0.115c0.096,0.069,0.18,0.343,0.184,0.611l-0.935,0.115
					C30.907,10.729,30.824,10.455,30.728,10.385z"/>
			</g>
			<g>
				<path class="st8" d="M30.728,10.385c0.096,0.069,0.179,0.343,0.184,0.611l0.537,30.148l-0.354-0.258l-0.529-29.665L16.613,1.083
					l-0.017-0.967L30.728,10.385z"/>
			</g>
		</g>
	</g>
</g>
<g>
	<g>
		<g class="st1">
			<g>
				<polygon class="st2" points="12.447,0.115 13.382,0 27.513,10.27 26.579,10.385 				"/>
			</g>
			<g>
				<polygon class="st2" points="26.763,10.997 27.697,10.881 28.235,41.03 27.3,41.145 				"/>
			</g>
			<g>
				<path class="st2" d="M26.579,10.385l0.935-0.115c0.096,0.069,0.179,0.343,0.184,0.611l-0.935,0.115
					C26.758,10.729,26.674,10.455,26.579,10.385z"/>
			</g>
			<g>
				<path class="st2" d="M26.579,10.385c0.096,0.069,0.179,0.343,0.184,0.611L27.3,41.145l-0.354-0.258l-0.529-29.665L12.464,1.083
					l-0.018-0.967L26.579,10.385z"/>
			</g>
		</g>
	</g>
</g>
<g>
	<g>
		<g class="st1">
			<g>
				<polygon class="st4" points="8.298,0.115 9.233,0 23.365,10.27 22.43,10.385 				"/>
			</g>
			<g>
				<polygon class="st4" points="22.614,10.997 23.549,10.881 24.086,41.03 23.151,41.145 				"/>
			</g>
			<g>
				<path class="st4" d="M22.43,10.385l0.935-0.115c0.095,0.069,0.179,0.343,0.184,0.611l-0.935,0.115
					C22.609,10.729,22.525,10.455,22.43,10.385z"/>
			</g>
			<g>
				<path class="st4" d="M22.43,10.385c0.096,0.069,0.179,0.343,0.184,0.611l0.538,30.148l-0.354-0.258l-0.529-29.665L8.315,1.083
					L8.298,0.115L22.43,10.385z"/>
			</g>
		</g>
	</g>
</g>
<g>
	<g>
		<g class="st1">
			<g>
				<polygon class="st0" points="4.149,0.115 5.084,0 19.215,10.27 18.28,10.385 				"/>
			</g>
			<g>
				<polygon class="st0" points="18.465,10.997 19.399,10.881 19.937,41.03 19.002,41.145 				"/>
			</g>
			<g>
				<path class="st0" d="M18.28,10.385l0.935-0.115c0.096,0.07,0.179,0.344,0.184,0.612l-0.935,0.115
					C18.46,10.729,18.376,10.455,18.28,10.385z"/>
			</g>
			<g>
				<path class="st0" d="M18.28,10.385c0.096,0.07,0.18,0.344,0.185,0.612l0.537,30.148l-0.354-0.257l-0.529-29.666L4.167,1.083
					L4.149,0.115L18.28,10.385z"/>
			</g>
		</g>
	</g>
</g>
<g id="end">
	<g>
		<g class="st1">
			<g>
				<polygon class="st6" points="0,0.115 0.935,0 15.066,10.27 14.132,10.385 				"/>
			</g>
			<g>
				<polygon class="st6" points="14.316,10.997 15.25,10.881 15.788,41.03 14.853,41.145 				"/>
			</g>
			<g>
				<path class="st6" d="M14.132,10.385l0.935-0.115c0.099,0.072,0.179,0.343,0.184,0.611l-0.935,0.115
					C14.311,10.729,14.23,10.457,14.132,10.385z"/>
			</g>
			<g>
				<path class="st6" d="M14.132,10.385c0.099,0.072,0.179,0.343,0.184,0.611l0.537,30.148l-0.354-0.258L13.97,11.222L0.018,1.083
					L0,0.115L14.132,10.385z"/>
			</g>
		</g>
	</g>
</g>
</svg>
